<svg width="2287" height="1325" viewBox="0 0 2287 1325" fill="none" xmlns="http://www.w3.org/2000/svg">
<path d="M2271 439.863C2133.62 576.994 1803.44 810.117 1581.81 645.56C1534.24 613.934 1446.4 522.294 1475.55 408.743C1511.98 266.805 1516.53 -130.167 672.503 72.4936C-2.72137 234.622 -28.3257 905.148 43.2753 1220.15C58.7087 1241.14 90.9417 1264.62 96.4067 1190.54C103.238 1097.94 264.909 899.076 355.992 912.739C447.074 926.401 590.529 1030.39 515.386 1220.15C515.892 1234.57 503.697 1252.02 450.869 1206.48C384.834 1149.56 269.463 903.63 409.123 852.775C548.783 801.92 893.378 673.645 973.075 852.775C1036.83 996.08 1076.05 1191.3 1087.69 1271C1165.11 1104.01 1344.69 776.114 1443.67 800.402C1542.64 824.691 1568.91 845.438 1569.67 852.775C1593.19 872.763 1622.19 922.91 1549.93 963.594C1477.67 1004.28 1375.61 1022.04 1333.61 1025.83C1506.67 890.727 1761.24 616.566 1395.09 600.778C937.401 581.043 1037.59 342.708 1048.22 331.323C1058.84 319.938 1270.61 42.1338 1518.81 57.3137C1767.01 72.4936 2075.93 424.683 2060.75 773.836C2045.57 1122.99 1998 1145.5 1936.55 1174.6C1860.19 1210.76 1779.43 1161.7 1786.26 1092.63C1793.09 1023.56 1824.21 1028.11 1848.5 1025.83C1872.79 1023.56 1919.09 1061.51 1901.63 1092.63" stroke="black" stroke-width="31" stroke-linecap="round"/>
</svg>
