<svg width="16" height="16" viewBox="0 0 16 16" fill="none" xmlns="http://www.w3.org/2000/svg">
<g clip-path="url(#clip0_1_16)">
<path d="M1.74 1V5.42105M1.74 5.42105H6.16105M1.74 5.42105L3.68551 3.67523C4.70309 2.65944 6.02327 2.00184 7.44711 1.80153C8.87096 1.60121 10.3213 1.86904 11.5797 2.56464C12.8381 3.26024 13.8363 4.34593 14.424 5.65814C15.0116 6.97035 15.1569 8.43799 14.8378 9.83991C14.5188 11.2418 13.7527 12.5021 12.6551 13.4308C11.5574 14.3596 10.1877 14.9064 8.75218 14.989C7.31669 15.0717 5.89323 14.6855 4.69627 13.8889C3.49932 13.0922 2.59372 11.9281 2.11592 10.5721" stroke="white" stroke-width="2" stroke-linecap="round" stroke-linejoin="round"/>
</g>
<defs>
<clipPath id="clip0_1_16">
<rect width="16" height="16" fill="white"/>
</clipPath>
</defs>
</svg>
